<?xml version="1.0" standalone="no"?>
<!DOCTYPE svg PUBLIC "-//W3C//DTD SVG 20010904//EN"
 "http://www.w3.org/TR/2001/REC-SVG-20010904/DTD/svg10.dtd">
<svg version="1.0" xmlns="http://www.w3.org/2000/svg"
 width="215.000000pt" height="129.000000pt" viewBox="0 0 215.000000 129.000000"
 preserveAspectRatio="xMidYMid meet">

<g transform="translate(0.000000,129.000000) scale(0.100000,-0.100000)"
fill="#000033" stroke="none">
<path d="M205 1148 c-77 -66 -153 -131 -169 -145 l-29 -24 26 -26 25 -26 146
124 c81 68 150 125 154 126 4 2 74 -54 157 -122 82 -69 152 -125 156 -125 4 0
17 12 28 26 l20 25 -62 53 -62 52 -3 67 -3 67 -34 0 c-34 0 -35 -1 -35 -41 l0
-40 -75 65 c-42 36 -81 66 -88 65 -7 0 -75 -55 -152 -121z"/>
<path d="M1285 1045 c-22 -8 -41 -15 -42 -15 -8 0 -33 -63 -33 -84 0 -32 43
-82 77 -90 98 -23 132 -37 138 -57 19 -58 -84 -82 -133 -31 -19 19 -35 26 -54
24 -51 -6 -29 -63 35 -93 124 -56 253 22 216 130 -13 35 -43 54 -115 72 -87
21 -113 49 -78 83 25 25 72 20 103 -11 29 -29 81 -35 81 -9 0 17 -36 63 -58
75 -34 18 -97 21 -137 6z"/>
<path d="M850 1046 c-3 -2 -4 -83 -2 -180 l3 -176 34 0 35 0 0 80 0 80 75 0
75 0 0 -80 0 -80 40 0 40 0 -2 178 -3 177 -35 0 -35 0 -3 -67 -3 -68 -74 0
-74 0 -3 68 c-3 67 -3 67 -33 70 -17 2 -33 1 -35 -2z"/>
<path d="M270 960 l0 -40 40 0 40 0 0 40 0 40 -40 0 -40 0 0 -40z"/>
<path d="M380 960 l0 -40 45 0 45 0 0 40 0 40 -45 0 -45 0 0 -40z"/>
<path d="M107 913 c-4 -3 -7 -55 -7 -115 l0 -108 265 0 266 0 -3 112 c-2 78
-7 113 -15 116 -10 3 -13 -19 -13 -87 l0 -91 -235 0 -235 0 0 90 c0 83 -5 101
-23 83z"/>
<path d="M270 850 l0 -40 40 0 40 0 0 40 0 40 -40 0 -40 0 0 -40z"/>
<path d="M380 850 l0 -40 45 0 45 0 0 40 0 40 -45 0 -45 0 0 -40z"/>
<path d="M100 637 c0 -47 20 -70 93 -105 35 -16 74 -43 87 -59 24 -30 24 -20
4 -276 -6 -72 -4 -80 20 -117 37 -57 58 -65 89 -36 48 45 60 82 53 165 -20
230 -20 234 5 265 12 15 50 41 85 56 66 30 90 56 96 105 l3 30 -267 3 -268 2
0 -33z m300 -487 c0 -25 -30 -41 -53 -29 -39 22 -4 79 35 58 10 -5 18 -18 18
-29z"/>
<path d="M870 580 c-100 -23 -133 -169 -55 -247 29 -29 39 -33 85 -33 86 0
130 39 130 115 l0 35 -60 0 c-53 0 -60 -2 -60 -20 0 -16 7 -20 30 -20 22 0 30
-5 30 -18 0 -28 -21 -42 -61 -42 -48 0 -79 36 -79 90 0 78 74 118 126 69 17
-16 30 -20 49 -15 25 6 26 8 12 29 -32 49 -87 70 -147 57z"/>
<path d="M1422 580 c-83 -19 -125 -117 -88 -205 40 -95 197 -101 241 -9 22 46
19 120 -5 159 -28 46 -90 69 -148 55z m88 -72 c28 -30 28 -110 0 -138 -26 -26
-81 -26 -105 0 -28 31 -31 100 -5 133 28 35 80 37 110 5z"/>
<path d="M1070 445 l0 -135 30 0 c29 0 30 2 30 45 0 41 2 45 25 45 18 0 31
-11 51 -45 23 -40 30 -45 60 -45 l35 0 -31 44 c-36 53 -36 54 -9 82 31 33 29
92 -6 121 -22 20 -37 23 -106 23 l-79 0 0 -135z m134 79 c19 -7 21 -45 4 -62
-7 -7 -27 -12 -45 -12 -32 0 -33 1 -33 40 0 38 2 40 29 40 16 0 36 -3 45 -6z"/>
<path d="M1640 469 c0 -109 0 -111 29 -140 24 -24 38 -29 76 -29 60 0 100 21
114 61 6 18 11 74 11 125 l0 94 -30 0 -30 0 0 -98 c0 -111 -13 -136 -66 -130
-41 4 -54 38 -54 141 0 86 0 87 -25 87 l-25 0 0 -111z"/>
<path d="M1910 445 l0 -135 29 0 c28 0 30 3 33 43 l3 42 52 5 c69 7 98 34 98
91 0 33 -6 46 -28 65 -25 21 -38 24 -108 24 l-79 0 0 -135z m138 76 c23 -14
10 -64 -19 -75 -42 -15 -59 -2 -59 44 0 39 1 40 33 40 17 0 38 -4 45 -9z"/>
</g>
</svg>
