<?xml version="1.0" standalone="no"?>
<!DOCTYPE svg PUBLIC "-//W3C//DTD SVG 20010904//EN"
 "http://www.w3.org/TR/2001/REC-SVG-20010904/DTD/svg10.dtd">
<svg version="1.0" xmlns="http://www.w3.org/2000/svg"
 width="126.000000pt" height="129.000000pt" viewBox="0 0 126.000000 129.000000"
 preserveAspectRatio="xMidYMid meet">

<g transform="translate(0.000000,129.000000) scale(0.100000,-0.100000)"
fill="#000033" stroke="none">
<path d="M205 1148 c-77 -66 -153 -131 -169 -145 l-29 -24 26 -26 25 -26 146
124 c81 68 150 125 154 126 4 2 74 -54 157 -122 82 -69 152 -125 156 -125 4 0
17 12 28 26 l20 25 -62 53 -62 52 -3 67 -3 67 -34 0 c-34 0 -35 -1 -35 -41 l0
-40 -75 65 c-42 36 -81 66 -88 65 -7 0 -75 -55 -152 -121z"/>
<path d="M270 960 l0 -40 40 0 40 0 0 40 0 40 -40 0 -40 0 0 -40z"/>
<path d="M380 960 l0 -40 45 0 45 0 0 40 0 40 -45 0 -45 0 0 -40z"/>
<path d="M107 913 c-4 -3 -7 -55 -7 -115 l0 -108 265 0 266 0 -3 112 c-2 78
-7 113 -15 116 -10 3 -13 -19 -13 -87 l0 -91 -235 0 -235 0 0 90 c0 83 -5 101
-23 83z"/>
<path d="M270 850 l0 -40 40 0 40 0 0 40 0 40 -40 0 -40 0 0 -40z"/>
<path d="M380 850 l0 -40 45 0 45 0 0 40 0 40 -45 0 -45 0 0 -40z"/>
<path d="M100 637 c0 -47 20 -70 93 -105 35 -16 74 -43 87 -59 24 -30 24 -20
4 -276 -6 -72 -4 -80 20 -117 37 -57 58 -65 89 -36 48 45 60 82 53 165 -20
230 -20 234 5 265 12 15 50 41 85 56 66 30 90 56 96 105 l3 30 -267 3 -268 2
0 -33z m300 -487 c0 -25 -30 -41 -53 -29 -39 22 -4 79 35 58 10 -5 18 -18 18
-29z"/>
</g>
</svg>
